HIERARCHY
ROOT ui
{
	 OFFSET 0 0 0
	 CHANNELS 3 XPosition YPosition Z Position
	 EndSite
	 {
	 OFFSET 0 -1 0
	 }
}
ROOT li
{
	 OFFSET 0 0 0
	 CHANNELS 3 XPosition YPosition Z Position
	 EndSite
	 {
	 OFFSET 0 -1 0
	 }
}
ROOT ul
{
	 OFFSET 0 0 0
	 CHANNELS 3 XPosition YPosition Z Position
	 EndSite
	 {
	 OFFSET 0 -1 0
	 }
}
ROOT ll
{
	 OFFSET 0 0 0
	 CHANNELS 3 XPosition YPosition Z Position
	 EndSite
	 {
	 OFFSET 0 -1 0
	 }
}
ROOT tt
{
	 OFFSET 0 0 0
	 CHANNELS 3 XPosition YPosition Z Position
	 EndSite
	 {
	 OFFSET 0 -1 0
	 }
}
ROOT tb
{
	 OFFSET 0 0 0
	 CHANNELS 3 XPosition YPosition Z Position
	 EndSite
	 {
	 OFFSET 0 -1 0
	 }
}
ROOT td
{
	 OFFSET 0 0 0
	 CHANNELS 3 XPosition YPosition Z Position
	 EndSite
	 {
	 OFFSET 0 -1 0
	 }
}
ROOT v
{
	 OFFSET 0 0 0
	 CHANNELS 3 XPosition YPosition Z Position
	 EndSite
	 {
	 OFFSET 0 -1 0
	 }
}
ROOT bn
{
	 OFFSET 0 0 0
	 CHANNELS 3 XPosition YPosition Z Position
	 EndSite
	 {
	 OFFSET 0 -1 0
	 }
}
MOTION
Frames: 10
Frame Time: 0.002
-0.004696084022521973	7.447580099105835E-4	0		0.53783740234375	-2.779878662109375	0		-1.0105477905273437	0.01813141441345215	0		-0.2312525634765625	-3.1721611328125	0		2.45326953125	-2.0470897216796873	0		3.82112939453125	-0.8898758544921875	0		4.812626953125	-0.46728494262695314	0		5.7659716796875	0.19892019653320311	0		-0.35680084228515624	5.88081787109375	0		
0.02040842056274414	-6.132919788360596E-4	0		0.5390597534179687	-2.77785693359375	0		-1.002319580078125	0.025006990432739257	0		-0.22632635498046874	-3.190217529296875	0		2.46162548828125	-2.03512841796875	0		3.823121337890625	-0.8997864379882813	0		4.8198828125	-0.4592666931152344	0		5.7631220703125	0.18547607421875	0		-0.3709755859375	5.8710478515625	0		
-0.004447378158569336	7.919059991836547E-4	0		0.5880601196289063	-2.7895703125	0		-1.0021939697265625	0.025013359069824218	0		-0.22651142883300782	-3.214195068359375	0		2.478754150390625	-2.037321533203125	0		3.860685546875	-0.8722645263671875	0		4.83022900390625	-0.44532623291015627	0		5.76965478515625	0.18891036987304688	0		-0.37095071411132813	5.87106494140625	0		
-0.008381866455078124	-0.0031231949329376223	0		0.5571714477539063	-2.792068115234375	0		-0.9980076904296875	0.028965574264526367	0		-0.23552043151855467	-3.22503515625	0		2.478900146484375	-2.0372735595703126	0		3.8239462890625	-0.8636400146484375	0		4.8245126953125	-0.43517184448242185	0		5.7668056640625	0.17531602478027344	0		-0.23854713439941405	5.8920703125	0		
-0.00825928783416748	-0.0030997159481048584	0		0.59208544921875	-2.806574462890625	0		-1.0056861572265625	0.04210633087158203	0		-0.2455693817138672	-3.236858642578125	0		2.48107470703125	-2.0342730712890624	0		3.8342685546875	-0.8507583618164063	0		4.83180322265625	-0.4242432250976563	0		5.7668935546875	0.17538816833496093	0		-0.35761227416992186	5.88190771484375	0		
-0.004081809043884278	8.629429936408997E-4	0		0.5501390380859374	-2.809911376953125	0		-0.9974633178710938	0.04901026916503906	0		-0.22785922241210937	-3.263105224609375	0		2.497230224609375	-2.031499755859375	0		3.846427734375	-0.847927490234375	0		4.83910107421875	-0.4123380126953125	0		5.76697705078125	0.1754039306640625	0		-0.22219081115722655	5.899873046875	0		
-9.254969954490662E-4	0.003842442989349365	0		0.6041618041992187	-2.814712890625	0		-0.973339599609375	0.04967712020874023	0		-0.22980279541015625	-3.26504736328125	0		2.490586181640625	-2.014387939453125	0		3.851141845703125	-0.80799609375	0		4.85042138671875	-0.39851251220703127	0		5.75803369140625	0.21550267028808595	0		-0.3913977355957031	5.87747998046875	0		
-0.0038653941154479982	9.164860248565674E-4	0		0.5482727661132812	-2.81183740234375	0		-0.9850795288085937	0.05989789962768555	0		-0.20901104736328124	-3.283335205078125	0		2.511727783203125	-2.0107088623046874	0		3.834194580078125	-0.8107515869140625	0		4.86075	-0.3836855163574219	0		5.76279541015625	0.16682048034667968	0		-0.22481837463378906	5.90297607421875	0		
-0.003763861894607544	9.471660256385803E-4	0		0.5951463623046875	-2.824531005859375	0		-0.9909000854492187	0.06503330993652344	0		-0.174325927734375	-3.30783349609375	0		2.4999248046875	-2.0025308837890625	0		3.841711669921875	-0.782884521484375	0		4.86802880859375	-0.37182113647460935	0		5.7515751953125	0.18618563842773436	0		-0.23878578186035157	5.893224609375	0		
-0.003664086103439331	9.80560004711151E-4	0		0.5422688598632812	-2.819697021484375	0		-0.9867386474609375	0.06902066040039062	0		-0.18038475036621093	-3.314704833984375	0		2.50614501953125	-1.9926298828125	0		3.860934326171875	-0.7742034912109375	0		4.87219873046875	-0.3669153747558594	0		5.74799169921875	0.17238059997558594	0		-0.23859294128417968	5.89326171875	0		
